<svg version="1.1" id="Layer_1" xmlns="http://www.w3.org/2000/svg" xmlns:xlink="http://www.w3.org/1999/xlink" x="0px" y="0px"
	 width="100%" viewBox="0 0 800 800" enable-background="new 0 0 800 800" xml:space="preserve">
<path fill="#FFFFFF" opacity="1.000000" stroke="none" 
	d="
M421.000000,801.000000 
	C280.666656,801.000000 140.833328,801.000000 1.000000,801.000000 
	C1.000000,534.333313 1.000000,267.666656 1.000000,1.000000 
	C267.666656,1.000000 534.333313,1.000000 801.000000,1.000000 
	C801.000000,267.666656 801.000000,534.333313 801.000000,801.000000 
	C674.500000,801.000000 548.000000,801.000000 421.000000,801.000000 
M47.000015,71.651695 
	C47.000015,304.382324 47.000015,537.112915 47.000015,769.701782 
	C281.692139,769.701782 515.747742,769.701782 749.308411,769.701782 
	C749.308411,535.737671 749.308411,302.072083 749.308411,68.000000 
	C746.837036,68.000000 745.049500,68.000000 743.262024,68.000000 
	C513.117981,68.000000 282.973969,67.999992 52.829948,68.000145 
	C51.496750,68.000145 50.037445,67.671448 48.872974,68.115280 
	C48.043331,68.431496 47.610302,69.788292 47.000015,71.651695 
z"/>
<path fill="#000000" opacity="1.000000" stroke="none" 
	d="
M47.000145,71.166206 
	C47.610302,69.788292 48.043331,68.431496 48.872974,68.115280 
	C50.037445,67.671448 51.496750,68.000145 52.829948,68.000145 
	C282.973969,67.999992 513.117981,68.000000 743.262024,68.000000 
	C745.049500,68.000000 746.837036,68.000000 749.308411,68.000000 
	C749.308411,302.072083 749.308411,535.737671 749.308411,769.701782 
	C515.747742,769.701782 281.692139,769.701782 47.000015,769.701782 
	C47.000015,537.112915 47.000015,304.382324 47.000145,71.166206 
z"/>
</svg>